<svg 
 xmlns="http://www.w3.org/2000/svg"
 xmlns:xlink="http://www.w3.org/1999/xlink"
 width="20px" height="16px">
<path fill-rule="evenodd"  fill="rgb(238, 238, 238)"
 d="M18.755,14.379 C18.274,15.061 17.317,15.232 16.621,14.759 L10.315,10.485 C9.868,10.184 9.637,9.692 9.654,9.197 C8.842,10.050 7.775,10.624 6.580,10.837 C5.112,11.099 3.629,10.785 2.405,9.956 C1.181,9.126 0.359,7.879 0.092,6.441 C-0.176,5.004 0.143,3.551 0.991,2.351 C2.742,-0.126 6.224,-0.747 8.755,0.967 C11.051,2.524 11.785,5.479 10.592,7.865 C11.058,7.673 11.611,7.710 12.060,8.014 L18.368,12.288 C19.064,12.761 19.238,13.697 18.755,14.379 ZM9.406,4.779 C9.220,3.777 8.648,2.907 7.794,2.329 C6.030,1.133 3.601,1.565 2.379,3.292 C1.159,5.022 1.601,7.400 3.365,8.595 C5.128,9.791 7.557,9.359 8.779,7.631 C9.370,6.795 9.593,5.782 9.406,4.779 Z"/>
</svg>